<svg width="25" height="25" viewBox="0 0 25 25" fill="none" xmlns="http://www.w3.org/2000/svg">
<g clip-path="url(#clip0_37_266)">
<path fill-rule="evenodd" clip-rule="evenodd" d="M16.4759 7.61938C15.9623 7.64057 15.3541 7.65352 14.6914 7.64414C12.7709 7.61717 10.3195 7.4025 8.38877 6.60749L8.85032 5.48662C10.5626 6.19165 12.8254 6.40556 14.7084 6.43216C15.6407 6.44528 16.4621 6.41244 17.05 6.37631C17.3437 6.35821 17.5785 6.33941 17.7389 6.32519C17.8191 6.31811 17.8807 6.31215 17.9218 6.30798L17.9677 6.30328L17.9785 6.30215L17.981 6.30184L18.7342 6.21816L18.6505 6.97105L18.6502 6.97384L18.6491 6.98471L18.6444 7.03058C18.6402 7.07166 18.6343 7.13325 18.6272 7.21343C18.6129 7.37388 18.5942 7.60863 18.5761 7.90236C18.5399 8.49023 18.5071 9.31162 18.5202 10.2439C18.5468 12.1269 18.7607 14.3898 19.4657 16.102L18.3448 16.5636C17.5499 14.6329 17.3352 12.1815 17.3082 10.2609C17.2989 9.59827 17.3119 8.99017 17.333 8.47661L6.47676 19.3328L5.61961 18.4757L16.4759 7.61938Z" fill="white" stroke="white" stroke-width="1.21218"/>
</g>
<defs>
<clipPath id="clip0_37_266">
<rect width="15.7584" height="18.1827" fill="white" transform="translate(11.6429 24.5) rotate(-135)"/>
</clipPath>
</defs>
</svg>
