<svg width="20" height="20" viewBox="0 0 20 20" fill="none" xmlns="http://www.w3.org/2000/svg">
<g clip-path="url(#clip0_19_147)">
<path fill-rule="evenodd" clip-rule="evenodd" d="M13.1794 5.97445C12.7557 5.99193 12.254 6.00262 11.7073 5.99488C10.1229 5.97263 8.1006 5.79554 6.50786 5.13969L6.88862 4.21502C8.30118 4.79664 10.1679 4.97311 11.7213 4.99505C12.4904 5.00587 13.168 4.97878 13.653 4.94897C13.8953 4.93404 14.089 4.91854 14.2214 4.9068C14.2875 4.90096 14.3383 4.89604 14.3722 4.89261L14.41 4.88873L14.419 4.88779L14.421 4.88754L15.0424 4.81851L14.9734 5.43961L14.9731 5.44191L14.9722 5.45088L14.9683 5.48872C14.9649 5.52261 14.96 5.57342 14.9541 5.63957C14.9424 5.77193 14.9269 5.96559 14.9119 6.2079C14.8821 6.69287 14.855 7.37048 14.8659 8.13961C14.8878 9.693 15.0643 11.5597 15.6459 12.9723L14.7212 13.353C14.0654 11.7603 13.8883 9.73802 13.866 8.15362C13.8583 7.60696 13.869 7.1053 13.8865 6.68163L4.93053 15.6376L4.22342 14.9305L13.1794 5.97445Z" fill="#101010" stroke="#101010"/>
</g>
<defs>
<clipPath id="clip0_19_147">
<rect width="13" height="15" fill="white" transform="translate(9.19238 19.8994) rotate(-135)"/>
</clipPath>
</defs>
</svg>
