<svg width="24" height="24" viewBox="0 0 24 24" fill="none" xmlns="http://www.w3.org/2000/svg">
<path d="M11.1539 6.07352C11.0957 6.13124 11.0363 6.18951 10.9759 6.24822C9.8287 7.36364 8.21831 8.72315 6.53842 9.42308L6.07688 9.61539L5.30768 7.76923L5.76921 7.57692C7.08934 7.02685 8.47885 5.8865 9.58178 4.81429C10.1223 4.28878 10.5735 3.79999 10.8891 3.44311C11.0466 3.26487 11.1696 3.1204 11.2523 3.02166C11.2935 2.97243 11.3247 2.93458 11.3449 2.9099L12.1539 1.8992L12.9628 2.9099C12.9829 2.93451 13.014 2.9722 13.0552 3.02147C13.1379 3.1202 13.2611 3.26486 13.4186 3.44311C13.7342 3.79999 14.1854 4.28878 14.7259 4.81429C15.8288 5.88649 17.2184 7.02686 18.5385 7.57693L19 7.76924L18.2308 9.61539L17.7692 9.42308C16.0894 8.72314 14.479 7.36363 13.3318 6.2482L13.3318 21L11.1539 21L11.1539 6.07352Z" fill="#181818"/>
</svg>
