<svg width="24" height="24" viewBox="0 0 24 24" fill="none" xmlns="http://www.w3.org/2000/svg">
<path d="M14.7 21.75H9.3C4.36 21.75 2.25 19.64 2.25 14.7V9.3C2.25 4.36 4.36 2.25 9.3 2.25H14.7C19.64 2.25 21.75 4.36 21.75 9.3V14.7C21.75 19.64 19.64 21.75 14.7 21.75ZM9.3 3.75C5.2 3.75 3.75 5.2 3.75 9.3V14.7C3.75 18.8 5.2 20.25 9.3 20.25H14.7C18.8 20.25 20.25 18.8 20.25 14.7V9.3C20.25 5.2 18.8 3.75 14.7 3.75H9.3V3.75Z" fill="#292D32"/>
<path fill-rule="evenodd" clip-rule="evenodd" d="M7.95117 10.3501C8.36539 10.3501 8.70117 10.6859 8.70117 11.1001V16.1001C8.70117 16.5143 8.36539 16.8501 7.95117 16.8501C7.53696 16.8501 7.20117 16.5143 7.20117 16.1001V11.1001C7.20117 10.6859 7.53696 10.3501 7.95117 10.3501Z" fill="#292D32"/>
<path fill-rule="evenodd" clip-rule="evenodd" d="M11.002 10.3501C11.4162 10.3501 11.752 10.6859 11.752 11.1001V16.1001C11.752 16.5143 11.4162 16.8501 11.002 16.8501C10.5877 16.8501 10.252 16.5143 10.252 16.1001V11.1001C10.252 10.6859 10.5877 10.3501 11.002 10.3501Z" fill="#292D32"/>
<path fill-rule="evenodd" clip-rule="evenodd" d="M13.502 11.8501C12.5362 11.8501 11.752 12.6343 11.752 13.6001C11.752 14.0143 11.4162 14.3501 11.002 14.3501C10.5877 14.3501 10.252 14.0143 10.252 13.6001C10.252 11.8059 11.7077 10.3501 13.502 10.3501C15.2962 10.3501 16.752 11.8059 16.752 13.6001V16.1001C16.752 16.5143 16.4162 16.8501 16.002 16.8501C15.5877 16.8501 15.252 16.5143 15.252 16.1001V13.6001C15.252 12.6343 14.4677 11.8501 13.502 11.8501Z" fill="#292D32"/>
<path d="M7.95117 8.6001C8.36539 8.6001 8.70117 8.26431 8.70117 7.8501C8.70117 7.43588 8.36539 7.1001 7.95117 7.1001C7.53696 7.1001 7.20117 7.43588 7.20117 7.8501C7.20117 8.26431 7.53696 8.6001 7.95117 8.6001Z" fill="#292D32"/>
</svg>
