<svg width="24" height="24" viewBox="0 0 24 24" fill="none" xmlns="http://www.w3.org/2000/svg">
<path fill-rule="evenodd" clip-rule="evenodd" d="M20.4783 6.81664C20.8632 5.84967 19.9669 4.8634 18.9676 5.15425L4.40075 9.39408C3.15852 9.75564 3.21662 11.535 4.47981 11.8147L8.73168 12.7563L14.7459 8.51473C15.0844 8.276 15.5523 8.35687 15.7911 8.69537V8.69537C16.0298 9.03387 15.9489 9.50181 15.6104 9.74053L9.89455 13.7717L12.2545 17.7057C13.2127 19.3029 15.5858 19.1108 16.2745 17.3802L20.4783 6.81664ZM8.41592 14.2227L4.15548 13.2792C1.37648 12.6638 1.24863 8.74929 3.98156 7.95384L18.5484 3.71401C20.7468 3.07415 22.7186 5.24393 21.872 7.37127L17.6682 17.9348C16.5203 20.8192 12.5651 21.1394 10.9682 18.4773L8.41592 14.2227Z" fill="#292D32"/>
</svg>
